<?xml version="1.0" standalone="no"?>
<svg xmlns="http://www.w3.org/2000/svg" xmlns:xlink="http://www.w3.org/1999/xlink" width="378pt" height="185pt" viewBox="0.00 0.00 378.21 185">
<g id="graph0" class="graph" transform="translate(4,181) scale(1)" data-name="R">

<polygon fill="white" stroke="none" points="-4,4 -4,-181 374.21,-181 374.21,4 -4,4"/>
<!-- V -->
<g id="node1" class="node" pointer-events="visible" data-name="V">

<path fill="none" stroke="rgb(220, 220, 220)" d="M358.21,-117C358.21,-117 303.21,-117 303.21,-117 297.21,-117 291.21,-111 291.21,-105 291.21,-105 291.21,-93 291.21,-93 291.21,-87 297.21,-81 303.21,-81 303.21,-81 358.21,-81 358.21,-81 364.21,-81 370.21,-87 370.21,-93 370.21,-93 370.21,-105 370.21,-105 370.21,-111 364.21,-117 358.21,-117"/>
<text text-anchor="middle" x="330.71" y="-94.8" font-family="Times,serif" font-size="14.00" fill="rgb(220, 220, 220)">VERIFIER</text>
</g>
<!-- IOT -->
<g id="node3" class="node" pointer-events="visible" data-name="IOT">

<ellipse fill="none" stroke="black" cx="184.52" cy="-99" rx="27.25" ry="27.25"/>
<text text-anchor="middle" x="184.52" y="-94.8" font-family="Times,serif" font-size="14.00">IOT</text>
</g>
<!-- V&#45;&gt;IOT -->
<g id="edge6" class="edge" data-name="V-&gt;IOT">

<path fill="none" stroke="rgb(220, 220, 220)" d="M279.83,-99C261.29,-99 240.58,-99 223.3,-99"/>
<polygon fill="#dcdcdc" stroke="#dcdcdc" points="279.55,-102.5 289.55,-99 279.55,-95.5 279.55,-102.5"/>
<polygon fill="#dcdcdc" stroke="#dcdcdc" points="223.46,-95.5 213.46,-99 223.46,-102.5 223.46,-95.5"/>
<text text-anchor="middle" x="251.43" y="-103.2" font-family="Times,serif" font-size="14.00" fill="rgb(220, 220, 220)"> use VP</text>
</g>
<!-- I -->
<g id="node2" class="node" pointer-events="visible" data-name="I">

<path fill="none" stroke="rgb(220, 220, 220)" d="M52.35,-177C52.35,-177 11.88,-177 11.88,-177 5.88,-177 -0.12,-171 -0.12,-165 -0.12,-165 -0.12,-153 -0.12,-153 -0.12,-147 5.88,-141 11.88,-141 11.88,-141 52.35,-141 52.35,-141 58.35,-141 64.35,-147 64.35,-153 64.35,-153 64.35,-165 64.35,-165 64.35,-171 58.35,-177 52.35,-177"/>
<text text-anchor="middle" x="32.12" y="-154.8" font-family="Times,serif" font-size="14.00" fill="rgb(220, 220, 220)">ISSUER</text>
</g>
<!-- IOT&#45;&gt;I -->
<g id="edge3" class="edge" data-name="IOT-&gt;I">

<path fill="none" stroke="rgb(220, 220, 220)" d="M150.37,-116.93C146.7,-118.72 142.99,-120.45 139.4,-122 118.76,-130.91 95.2,-139.29 75.52,-145.81"/>
<polygon fill="#dcdcdc" stroke="#dcdcdc" points="151.78,-120.14 159.12,-112.5 148.62,-113.9 151.78,-120.14"/>
<polygon fill="#dcdcdc" stroke="#dcdcdc" points="74.59,-142.43 66.17,-148.86 76.76,-149.09 74.59,-142.43"/>
<text text-anchor="middle" x="110.82" y="-146.2" font-family="Times,serif" font-size="14.00" fill="rgb(220, 220, 220)">    gen VC</text>
</g>
<!-- E -->
<g id="node4" class="node" pointer-events="visible" data-name="E">

<path fill="none" stroke="black" d="M47.12,-97C47.12,-97 17.12,-97 17.12,-97 11.12,-97 5.12,-91 5.12,-85 5.12,-85 5.12,-73 5.12,-73 5.12,-67 11.12,-61 17.12,-61 17.12,-61 47.12,-61 47.12,-61 53.12,-61 59.12,-67 59.12,-73 59.12,-73 59.12,-85 59.12,-85 59.12,-91 53.12,-97 47.12,-97"/>
<text text-anchor="middle" x="32.12" y="-74.8" font-family="Times,serif" font-size="14.00">EDGE</text>
</g>
<!-- IOT&#45;&gt;E -->
<g id="edge1" class="edge" data-name="IOT-&gt;E">

<path fill="none" stroke="black" d="M145.74,-101.2C126.56,-101.58 102.99,-100.9 82.23,-97 78.32,-96.27 74.31,-95.26 70.35,-94.08"/>
<polygon fill="black" stroke="black" points="145.65,-104.71 155.53,-100.9 145.43,-97.71 145.65,-104.71"/>
<polygon fill="black" stroke="black" points="71.46,-90.77 60.87,-90.94 69.25,-97.41 71.46,-90.77"/>
<text text-anchor="middle" x="110.82" y="-105.2" font-family="Times,serif" font-size="14.00">gen keys</text>
</g>
<!-- IOT&#45;&gt;E -->
<g id="edge4" class="edge" data-name="IOT-&gt;E">

<path fill="none" stroke="black" d="M160.98,-84.75C154.29,-81.25 146.77,-77.99 139.4,-76.2 116.95,-70.74 91.06,-71.29 70.45,-73.28"/>
<polygon fill="black" stroke="black" points="70.34,-69.77 60.8,-74.37 71.12,-76.72 70.34,-69.77"/>
<text text-anchor="middle" x="110.82" y="-81.2" font-family="Times,serif" font-size="14.00" style=""> store VC</text>
</g>
<!-- IOT&#45;&gt;E -->
<g id="edge5" class="edge" data-name="IOT-&gt;E">

<path fill="none" stroke="black" d="M161.57,-67.64C155.25,-60.98 147.76,-54.86 139.4,-51.2 116.12,-41.01 106.8,-44.73 82.23,-51.2 77.99,-52.32 73.72,-53.9 69.57,-55.74"/>
<polygon fill="black" stroke="black" points="158.78,-69.76 167.95,-75.06 164.09,-65.2 158.78,-69.76"/>
<polygon fill="black" stroke="black" points="68.29,-52.47 60.93,-60.09 71.44,-58.72 68.29,-52.47"/>
<text text-anchor="middle" x="110.82" y="-56.2" font-family="Times,serif" font-size="14.00" style=""> get VP</text>
</g>
<!-- T -->
<g id="node5" class="node" pointer-events="visible" data-name="T">

<path fill="none" stroke="rgb(220, 220, 220)" d="M211.52,-32.73C211.52,-34.53 199.42,-36 184.52,-36 169.62,-36 157.52,-34.53 157.52,-32.73 157.52,-32.73 157.52,-3.27 157.52,-3.27 157.52,-1.47 169.62,0 184.52,0 199.42,0 211.52,-1.47 211.52,-3.27 211.52,-3.27 211.52,-32.73 211.52,-32.73"/>
<path fill="none" stroke="rgb(220, 220, 220)" d="M211.52,-32.73C211.52,-30.92 199.42,-29.45 184.52,-29.45 169.62,-29.45 157.52,-30.92 157.52,-32.73"/>
<text text-anchor="middle" x="184.52" y="-13.8" font-family="Times,serif" font-size="14.00" fill="rgb(220, 220, 220)">DLT</text>
</g>
<!-- IOT&#45;&gt;T -->
<g id="edge2" class="edge" data-name="IOT-&gt;T">

<path fill="none" stroke="rgb(220, 220, 220)" d="M184.52,-60.09C184.52,-55.98 184.52,-51.86 184.52,-47.88"/>
<polygon fill="#dcdcdc" stroke="#dcdcdc" points="181.02,-59.95 184.52,-69.95 188.02,-59.95 181.02,-59.95"/>
<polygon fill="#dcdcdc" stroke="#dcdcdc" points="188.02,-47.89 184.52,-37.89 181.02,-47.89 188.02,-47.89"/>
<text text-anchor="middle" x="195.92" y="-49.74" font-family="Times,serif" font-size="14.00" fill="rgb(220, 220, 220)">     did</text>
</g>
</g>
</svg>