<?xml version="1.0" standalone="no"?>
<svg xmlns="http://www.w3.org/2000/svg" xmlns:xlink="http://www.w3.org/1999/xlink" width="398pt" height="187pt" viewBox="0.00 0.00 397.57 187">
<g id="graph0" class="graph" transform="translate(4,183) scale(1)" data-name="R">

<polygon fill="white" stroke="none" points="-4,4 -4,-183 393.57,-183 393.57,4 -4,4"/>
<!-- V -->
<g id="node1" class="node" pointer-events="visible" data-name="V">

<path fill="none" stroke="rgb(154, 154, 154)" d="M377.57,-119C377.57,-119 322.57,-119 322.57,-119 316.57,-119 310.57,-113 310.57,-107 310.57,-107 310.57,-95 310.57,-95 310.57,-89 316.57,-83 322.57,-83 322.57,-83 377.57,-83 377.57,-83 383.57,-83 389.57,-89 389.57,-95 389.57,-95 389.57,-107 389.57,-107 389.57,-113 383.57,-119 377.57,-119"/>
<text text-anchor="middle" x="350.07" y="-96.8" font-family="Times,serif" font-size="14.00" fill="rgb(154, 154, 154)">VERIFIER</text>
</g>
<!-- IOT -->
<g id="node3" class="node" pointer-events="visible" data-name="IOT">

<ellipse fill="none" stroke="black" cx="194.6" cy="-101" rx="29.33" ry="29.33"/>
<text text-anchor="middle" x="194.6" y="-105.2" font-family="Times,serif" font-size="14.00">IoT</text>
<text text-anchor="middle" x="194.6" y="-88.4" font-family="Times,serif" font-size="14.00">dev.</text>
</g>
<!-- V&#45;&gt;IOT -->
<g id="edge6" class="edge" data-name="V-&gt;IOT">

<path fill="none" stroke="rgb(154, 154, 154)" d="M298.93,-101C278.39,-101 254.96,-101 235.6,-101"/>
<polygon fill="#9a9a9a" stroke="#9a9a9a" points="298.83,-104.5 308.83,-101 298.83,-97.5 298.83,-104.5"/>
<polygon fill="#9a9a9a" stroke="#9a9a9a" points="235.65,-97.5 225.65,-101 235.65,-104.5 235.65,-97.5"/>
<text text-anchor="middle" x="267.29" y="-105.2" font-family="Times,serif" font-size="14.00" fill="rgb(154, 154, 154)"> send VP</text>
</g>
<!-- I -->
<g id="node2" class="node" pointer-events="visible" data-name="I">

<path fill="none" stroke="rgb(154, 154, 154)" d="M52.35,-179C52.35,-179 11.88,-179 11.88,-179 5.88,-179 -0.12,-173 -0.12,-167 -0.12,-167 -0.12,-155 -0.12,-155 -0.12,-149 5.88,-143 11.88,-143 11.88,-143 52.35,-143 52.35,-143 58.35,-143 64.35,-149 64.35,-155 64.35,-155 64.35,-167 64.35,-167 64.35,-173 58.35,-179 52.35,-179"/>
<text text-anchor="middle" x="32.12" y="-156.8" font-family="Times,serif" font-size="14.00" fill="rgb(154, 154, 154)">ISSUER</text>
</g>
<!-- IOT&#45;&gt;I -->
<g id="edge3" class="edge" data-name="IOT-&gt;I">

<path fill="none" stroke="rgb(154, 154, 154)" d="M158.19,-119.2C154.51,-120.9 150.79,-122.53 147.18,-124 123.87,-133.5 97.13,-142.28 75.4,-148.9"/>
<polygon fill="#9a9a9a" stroke="#9a9a9a" points="159.49,-122.46 167,-114.99 156.47,-116.15 159.49,-122.46"/>
<polygon fill="#9a9a9a" stroke="#9a9a9a" points="74.56,-145.5 65.99,-151.72 76.58,-152.2 74.56,-145.5"/>
<text text-anchor="middle" x="114.71" y="-150.2" font-family="Times,serif" font-size="14.00" fill="rgb(154, 154, 154)">    issue VC</text>
</g>
<!-- E -->
<g id="node4" class="node" pointer-events="visible" data-name="E">

<path fill="none" stroke="black" d="M47.12,-101.6C47.12,-101.6 17.12,-101.6 17.12,-101.6 11.12,-101.6 5.12,-95.6 5.12,-89.6 5.12,-89.6 5.12,-72.4 5.12,-72.4 5.12,-66.4 11.12,-60.4 17.12,-60.4 17.12,-60.4 47.12,-60.4 47.12,-60.4 53.12,-60.4 59.12,-66.4 59.12,-72.4 59.12,-72.4 59.12,-89.6 59.12,-89.6 59.12,-95.6 53.12,-101.6 47.12,-101.6"/>
<text text-anchor="middle" x="32.12" y="-85.2" font-family="Times,serif" font-size="14.00">EDGE</text>
<text text-anchor="middle" x="32.12" y="-68.4" font-family="Times,serif" font-size="14.00">node</text>
</g>
<!-- IOT&#45;&gt;E -->
<g id="edge1" class="edge" data-name="IOT-&gt;E">

<path fill="none" stroke="black" d="M153.69,-103.47C132.32,-104 105.65,-103.37 82.23,-99 78.32,-98.27 74.31,-97.26 70.35,-96.09"/>
<polygon fill="black" stroke="black" points="153.57,-106.98 163.44,-103.13 153.33,-99.98 153.57,-106.98"/>
<polygon fill="black" stroke="black" points="71.46,-92.77 60.86,-92.94 69.25,-99.42 71.46,-92.77"/>
<text text-anchor="middle" x="114.71" y="-107.2" font-family="Times,serif" font-size="14.00">gen keys</text>
</g>
<!-- IOT&#45;&gt;E -->
<g id="edge4" class="edge" data-name="IOT-&gt;E">

<path fill="none" stroke="black" d="M168.84,-86.26C162.05,-82.95 154.53,-79.91 147.18,-78.2 122.16,-72.39 93.21,-73.18 70.74,-75.38"/>
<polygon fill="black" stroke="black" points="70.36,-71.9 60.82,-76.5 71.15,-78.86 70.36,-71.9"/>
<text text-anchor="middle" x="114.71" y="-83.2" font-family="Times,serif" font-size="14.00" style=""> store VC</text>
</g>
<!-- IOT&#45;&gt;E -->
<g id="edge5" class="edge" data-name="IOT-&gt;E">

<path fill="none" stroke="black" d="M169.55,-68.92C163.06,-62.53 155.5,-56.72 147.18,-53.2 120.6,-41.96 110.15,-45.85 82.23,-53.2 77.99,-54.32 73.72,-55.9 69.57,-57.74"/>
<polygon fill="black" stroke="black" points="166.79,-71.09 176.15,-76.07 171.94,-66.35 166.79,-71.09"/>
<polygon fill="black" stroke="black" points="68.29,-54.47 60.93,-62.09 71.44,-60.72 68.29,-54.47"/>
<text text-anchor="middle" x="114.71" y="-58.2" font-family="Times,serif" font-size="14.00" style=""> get VP</text>
</g>
<!-- T -->
<g id="node5" class="node" pointer-events="visible" data-name="T">

<path fill="none" stroke="rgb(154, 154, 154)" d="M221.6,-32.73C221.6,-34.53 209.5,-36 194.6,-36 179.7,-36 167.6,-34.53 167.6,-32.73 167.6,-32.73 167.6,-3.27 167.6,-3.27 167.6,-1.47 179.7,0 194.6,0 209.5,0 221.6,-1.47 221.6,-3.27 221.6,-3.27 221.6,-32.73 221.6,-32.73"/>
<path fill="none" stroke="rgb(154, 154, 154)" d="M221.6,-32.73C221.6,-30.92 209.5,-29.45 194.6,-29.45 179.7,-29.45 167.6,-30.92 167.6,-32.73"/>
<text text-anchor="middle" x="194.6" y="-13.8" font-family="Times,serif" font-size="14.00" fill="rgb(154, 154, 154)">DLT</text>
</g>
<!-- IOT&#45;&gt;T -->
<g id="edge2" class="edge" data-name="IOT-&gt;T">

<path fill="none" stroke="rgb(154, 154, 154)" d="M194.6,-59.86C194.6,-55.78 194.6,-51.7 194.6,-47.77"/>
<polygon fill="#9a9a9a" stroke="#9a9a9a" points="191.1,-59.71 194.6,-69.71 198.1,-59.71 191.1,-59.71"/>
<polygon fill="#9a9a9a" stroke="#9a9a9a" points="198.1,-47.93 194.6,-37.93 191.1,-47.93 198.1,-47.93"/>
<text text-anchor="middle" x="206" y="-49.59" font-family="Times,serif" font-size="14.00" fill="rgb(154, 154, 154)">                          register identifiers</text>
</g>
</g>
</svg>