<?xml version="1.0" standalone="no"?>
<svg xmlns="http://www.w3.org/2000/svg" xmlns:xlink="http://www.w3.org/1999/xlink" width="389pt" height="185pt" viewBox="0.00 0.00 388.71 185">
<g id="graph0" class="graph" transform="translate(4,181) scale(1)" data-name="R">

<polygon fill="white" stroke="none" points="-4,4 -4,-181 384.71,-181 384.71,4 -4,4"/>
<!-- V -->
<g id="node1" class="node" pointer-events="visible" data-name="V">

<path fill="none" stroke="rgb(137, 137, 137)" d="M368.71,-117C368.71,-117 313.71,-117 313.71,-117 307.71,-117 301.71,-111 301.71,-105 301.71,-105 301.71,-93 301.71,-93 301.71,-87 307.71,-81 313.71,-81 313.71,-81 368.71,-81 368.71,-81 374.71,-81 380.71,-87 380.71,-93 380.71,-93 380.71,-105 380.71,-105 380.71,-111 374.71,-117 368.71,-117"/>
<text text-anchor="middle" x="341.21" y="-94.8" font-family="Times,serif" font-size="14.00" fill="rgb(137, 137, 137)">VERIFIER</text>
</g>
<!-- IOT -->
<g id="node3" class="node" pointer-events="visible" data-name="IOT">

<ellipse fill="none" stroke="black" cx="188.02" cy="-99" rx="27.25" ry="27.25"/>
<text text-anchor="middle" x="188.02" y="-94.8" font-family="Times,serif" font-size="14.00">IOT</text>
</g>
<!-- V&#45;&gt;IOT -->
<g id="edge6" class="edge" data-name="V-&gt;IOT">

<path fill="none" stroke="rgb(137, 137, 137)" d="M291.54,-99C270.18,-99 245.51,-99 225.73,-99"/>
<polygon fill="#898989" stroke="#898989" points="291.66,-102.5 301.66,-99 291.66,-95.5 291.66,-102.5"/>
<polygon fill="#898989" stroke="#898989" points="225.59,-95.5 215.59,-99 225.59,-102.5 225.59,-95.5"/>
<text text-anchor="middle" x="258.43" y="-103.2" font-family="Times,serif" font-size="14.00" fill="rgb(137, 137, 137)">6 use VP</text>
</g>
<!-- I -->
<g id="node2" class="node" pointer-events="visible" data-name="I">

<path fill="none" stroke="rgb(137, 137, 137)" d="M52.35,-177C52.35,-177 11.88,-177 11.88,-177 5.88,-177 -0.12,-171 -0.12,-165 -0.12,-165 -0.12,-153 -0.12,-153 -0.12,-147 5.88,-141 11.88,-141 11.88,-141 52.35,-141 52.35,-141 58.35,-141 64.35,-147 64.35,-153 64.35,-153 64.35,-165 64.35,-165 64.35,-171 58.35,-177 52.35,-177"/>
<text text-anchor="middle" x="32.12" y="-154.8" font-family="Times,serif" font-size="14.00" fill="rgb(137, 137, 137)">ISSUER</text>
</g>
<!-- IOT&#45;&gt;I -->
<g id="edge3" class="edge" data-name="IOT-&gt;I">

<path fill="none" stroke="rgb(137, 137, 137)" d="M154.89,-116.48C150.89,-118.44 146.83,-120.32 142.9,-122 120.64,-131.49 95.05,-140.23 74.18,-146.83"/>
<polygon fill="#898989" stroke="#898989" points="156.65,-119.51 163.99,-111.87 153.49,-113.27 156.65,-119.51"/>
<polygon fill="#898989" stroke="#898989" points="72.86,-143.58 64.35,-149.89 74.94,-150.26 72.86,-143.58"/>
<text text-anchor="middle" x="112.57" y="-147.2" font-family="Times,serif" font-size="14.00" fill="rgb(137, 137, 137)">3 gen VC</text>
</g>
<!-- E -->
<g id="node4" class="node" pointer-events="visible" data-name="E">

<path fill="none" stroke="black" d="M47.12,-97C47.12,-97 17.12,-97 17.12,-97 11.12,-97 5.12,-91 5.12,-85 5.12,-85 5.12,-73 5.12,-73 5.12,-67 11.12,-61 17.12,-61 17.12,-61 47.12,-61 47.12,-61 53.12,-61 59.12,-67 59.12,-73 59.12,-73 59.12,-85 59.12,-85 59.12,-91 53.12,-97 47.12,-97"/>
<text text-anchor="middle" x="32.12" y="-74.8" font-family="Times,serif" font-size="14.00">EDGE</text>
</g>
<!-- IOT&#45;&gt;E -->
<g id="edge1" class="edge" data-name="IOT-&gt;E">

<path fill="none" stroke="black" d="M150.85,-101.24C130.52,-101.77 104.77,-101.22 82.23,-97 77.8,-96.17 73.23,-94.98 68.75,-93.61"/>
<polygon fill="black" stroke="black" points="151.07,-104.74 160.94,-100.88 150.82,-97.74 151.07,-104.74"/>
<polygon fill="black" stroke="black" points="69.77,-90.26 59.17,-90.37 67.52,-96.89 69.77,-90.26"/>
<text text-anchor="middle" x="112.57" y="-105.2" font-family="Times,serif" font-size="14.00">1 gen keys</text>
</g>
<!-- IOT&#45;&gt;E -->
<g id="edge4" class="edge" data-name="IOT-&gt;E">

<path fill="none" stroke="black" d="M164.48,-84.75C157.79,-81.25 150.27,-77.99 142.9,-76.2 118.86,-70.36 90.98,-71.16 69.34,-73.37"/>
<polygon fill="black" stroke="black" points="68.78,-69.91 59.25,-74.54 69.59,-76.86 68.78,-69.91"/>
<text text-anchor="middle" x="112.57" y="-81.2" font-family="Times,serif" font-size="14.00" style="">4 store VC</text>
</g>
<!-- IOT&#45;&gt;E -->
<g id="edge5" class="edge" data-name="IOT-&gt;E">

<path fill="none" stroke="black" d="M166.07,-68.71C159.54,-61.64 151.71,-55.06 142.9,-51.2 118.2,-40.39 108.31,-44.33 82.23,-51.2 77.56,-52.43 72.87,-54.22 68.34,-56.3"/>
<polygon fill="black" stroke="black" points="163.5,-71.09 172.63,-76.46 168.85,-66.57 163.5,-71.09"/>
<polygon fill="black" stroke="black" points="66.63,-53.24 59.32,-60.91 69.82,-59.48 66.63,-53.24"/>
<text text-anchor="middle" x="112.57" y="-56.2" font-family="Times,serif" font-size="14.00" style="">5 get VP</text>
</g>
<!-- T -->
<g id="node5" class="node" pointer-events="visible" data-name="T">

<path fill="none" stroke="rgb(137, 137, 137)" d="M215.02,-32.73C215.02,-34.53 202.92,-36 188.02,-36 173.12,-36 161.02,-34.53 161.02,-32.73 161.02,-32.73 161.02,-3.27 161.02,-3.27 161.02,-1.47 173.12,0 188.02,0 202.92,0 215.02,-1.47 215.02,-3.27 215.02,-3.27 215.02,-32.73 215.02,-32.73"/>
<path fill="none" stroke="rgb(137, 137, 137)" d="M215.02,-32.73C215.02,-30.92 202.92,-29.45 188.02,-29.45 173.12,-29.45 161.02,-30.92 161.02,-32.73"/>
<text text-anchor="middle" x="188.02" y="-13.8" font-family="Times,serif" font-size="14.00" fill="rgb(137, 137, 137)">DLT</text>
</g>
<!-- IOT&#45;&gt;T -->
<g id="edge2" class="edge" data-name="IOT-&gt;T">

<path fill="none" stroke="rgb(137, 137, 137)" d="M188.02,-61.61C188.02,-56.57 188.02,-51.46 188.02,-46.6"/>
<polygon fill="#898989" stroke="#898989" points="184.52,-61.77 188.02,-71.77 191.52,-61.77 184.52,-61.77"/>
<polygon fill="#898989" stroke="#898989" points="191.52,-46.38 188.02,-36.38 184.52,-46.38 191.52,-46.38"/>
<text text-anchor="middle" x="199.42" y="-49.74" font-family="Times,serif" font-size="14.00" fill="rgb(137, 137, 137)">     2 did</text>
</g>
</g>
</svg>