<?xml version="1.0" encoding="UTF-8" standalone="no"?><!DOCTYPE svg PUBLIC "-//W3C//DTD SVG 1.1//EN" "http://www.w3.org/Graphics/SVG/1.1/DTD/svg11.dtd"><!-- Generated by graphviz version 2.40.1 (20161225.0304)
 --><!-- Title: R Pages: 1 --><svg xmlns="http://www.w3.org/2000/svg" xmlns:xlink="http://www.w3.org/1999/xlink" width="389pt" height="185pt" viewBox="0.00 0.00 388.66 185.00">
<g id="graph0" class="graph" transform="scale(1 1) rotate(0) translate(4 181)">
<title>R</title>
<polygon fill="#ffffff" stroke="transparent" points="-4,4 -4,-181 384.6566,-181 384.6566,4 -4,4"/>
<!-- V -->
<g id="node1" class="node">
<title>V</title>
<path fill="none" stroke="#000000" d="M368.651,-117C368.651,-117 313.6734,-117 313.6734,-117 307.6734,-117 301.6734,-111 301.6734,-105 301.6734,-105 301.6734,-93 301.6734,-93 301.6734,-87 307.6734,-81 313.6734,-81 313.6734,-81 368.651,-81 368.651,-81 374.651,-81 380.651,-87 380.651,-93 380.651,-93 380.651,-105 380.651,-105 380.651,-111 374.651,-117 368.651,-117"/>
<text text-anchor="middle" x="341.1622" y="-94.8" font-family="Times,serif" font-size="14.00" fill="#000000">VERIFIER</text>
</g>
<!-- IOT -->
<g id="node3" class="node">
<title>IOT</title>
<ellipse fill="none" stroke="#000000" cx="187.9973" cy="-99" rx="27.2447" ry="27.2447"/>
<text text-anchor="middle" x="187.9973" y="-94.8" font-family="Times,serif" font-size="14.00" fill="#000000">IOT</text>
</g>
<!-- V&#45;&gt;IOT -->
<g id="edge6" class="edge">
<title>V-&gt;IOT</title>
<path fill="none" stroke="#000000" d="M291.2147,-99C269.912,-99 245.4684,-99 225.7172,-99"/>
<polygon fill="#000000" stroke="#000000" points="291.3198,-102.5001 301.3197,-99 291.3197,-95.5001 291.3198,-102.5001"/>
<polygon fill="#000000" stroke="#000000" points="225.5681,-95.5001 215.5681,-99 225.568,-102.5001 225.5681,-95.5001"/>
<text text-anchor="middle" x="258.3936" y="-103.2" font-family="Times,serif" font-size="14.00" fill="#000000">6 use VP</text>
</g>
<!-- I -->
<g id="node2" class="node">
<title>I</title>
<path fill="none" stroke="#000000" d="M52.3328,-177C52.3328,-177 11.8888,-177 11.8888,-177 5.8888,-177 -.1112,-171 -.1112,-165 -.1112,-165 -.1112,-153 -.1112,-153 -.1112,-147 5.8888,-141 11.8888,-141 11.8888,-141 52.3328,-141 52.3328,-141 58.3328,-141 64.3328,-147 64.3328,-153 64.3328,-153 64.3328,-165 64.3328,-165 64.3328,-171 58.3328,-177 52.3328,-177"/>
<text text-anchor="middle" x="32.1108" y="-154.8" font-family="Times,serif" font-size="14.00" fill="#000000">ISSUER</text>
</g>
<!-- IOT&#45;&gt;I -->
<g id="edge3" class="edge">
<title>IOT-&gt;I</title>
<path fill="none" stroke="#000000" d="M154.8409,-116.602C150.8495,-118.5117 146.798,-120.3558 142.8752,-122 120.5992,-131.3367 95.0687,-139.9963 74.1368,-146.587"/>
<polygon fill="#000000" stroke="#000000" points="156.5469,-119.6629 163.9565,-112.09 153.4417,-113.3894 156.5469,-119.6629"/>
<polygon fill="#000000" stroke="#000000" points="73.0817,-143.2497 64.569,-149.5572 75.1571,-149.935 73.0817,-143.2497"/>
<text text-anchor="middle" x="112.5484" y="-147.2" font-family="Times,serif" font-size="14.00" fill="#000000">3 gen VC</text>
</g>
<!-- E -->
<g id="node4" class="node">
<title>E</title>
<path fill="none" stroke="#000000" d="M47.1108,-97C47.1108,-97 17.1108,-97 17.1108,-97 11.1108,-97 5.1108,-91 5.1108,-85 5.1108,-85 5.1108,-73 5.1108,-73 5.1108,-67 11.1108,-61 17.1108,-61 17.1108,-61 47.1108,-61 47.1108,-61 53.1108,-61 59.1108,-67 59.1108,-73 59.1108,-73 59.1108,-85 59.1108,-85 59.1108,-91 53.1108,-97 47.1108,-97"/>
<text text-anchor="middle" x="32.1108" y="-74.8" font-family="Times,serif" font-size="14.00" fill="#000000">EDGE</text>
</g>
<!-- IOT&#45;&gt;E -->
<g id="edge1" class="edge">
<title>IOT-&gt;E</title>
<path fill="none" stroke="#000000" d="M150.6587,-101.2351C130.2732,-101.7206 104.6804,-101.1304 82.2216,-97 77.8065,-96.188 73.2632,-95.0364 68.7993,-93.7031"/>
<polygon fill="#000000" stroke="#000000" points="150.9227,-104.7283 160.8002,-100.8962 150.6888,-97.7322 150.9227,-104.7283"/>
<polygon fill="#000000" stroke="#000000" points="69.8272,-90.3568 59.2343,-90.5558 67.6393,-97.0061 69.8272,-90.3568"/>
<text text-anchor="middle" x="112.5484" y="-105.2" font-family="Times,serif" font-size="14.00" fill="#000000">1 gen keys</text>
</g>
<!-- IOT&#45;&gt;E -->
<g id="edge4" class="edge">
<title>IOT-&gt;E</title>
<path fill="none" stroke="#000000" d="M164.9122,-84.7434C158.0683,-81.2441 150.3885,-77.9904 142.8752,-76.2 118.9149,-70.4903 91.2123,-71.1929 69.5055,-73.3216"/>
<polygon fill="#000000" stroke="#000000" points="68.9207,-69.8652 59.3738,-74.4593 69.7019,-76.8215 68.9207,-69.8652"/>
<text text-anchor="middle" x="112.5484" y="-81.2" font-family="Times,serif" font-size="14.00" fill="#000000">4 store VC</text>
</g>
<!-- IOT&#45;&gt;E -->
<g id="edge5" class="edge">
<title>IOT-&gt;E</title>
<path fill="none" stroke="#000000" d="M166.2894,-68.5148C159.6469,-61.5165 151.7253,-55.0161 142.8752,-51.2 118.1212,-40.5263 108.3189,-44.4459 82.2216,-51.2 77.475,-52.4284 72.699,-54.2141 68.0806,-56.297"/>
<polygon fill="#000000" stroke="#000000" points="163.7734,-70.9552 172.9786,-76.2006 169.0536,-66.3596 163.7734,-70.9552"/>
<polygon fill="#000000" stroke="#000000" points="66.2545,-53.2972 58.8823,-60.9064 69.3906,-59.5554 66.2545,-53.2972"/>
<text text-anchor="middle" x="112.5484" y="-56.2" font-family="Times,serif" font-size="14.00" fill="#000000">5 get VP</text>
</g>
<!-- T -->
<g id="node5" class="node">
<title>T</title>
<path fill="none" stroke="#000000" d="M214.9973,-32.7273C214.9973,-34.5331 202.8954,-36 187.9973,-36 173.0991,-36 160.9973,-34.5331 160.9973,-32.7273 160.9973,-32.7273 160.9973,-3.2727 160.9973,-3.2727 160.9973,-1.4669 173.0991,0 187.9973,0 202.8954,0 214.9973,-1.4669 214.9973,-3.2727 214.9973,-3.2727 214.9973,-32.7273 214.9973,-32.7273"/>
<path fill="none" stroke="#000000" d="M214.9973,-32.7273C214.9973,-30.9214 202.8954,-29.4545 187.9973,-29.4545 173.0991,-29.4545 160.9973,-30.9214 160.9973,-32.7273"/>
<text text-anchor="middle" x="187.9973" y="-13.8" font-family="Times,serif" font-size="14.00" fill="#000000">DLT</text>
</g>
<!-- IOT&#45;&gt;T -->
<g id="edge2" class="edge">
<title>IOT-&gt;T</title>
<path fill="none" stroke="#000000" d="M187.9973,-61.6125C187.9973,-56.5681 187.9973,-51.4589 187.9973,-46.6005"/>
<polygon fill="#000000" stroke="#000000" points="184.4974,-61.7746 187.9973,-71.7746 191.4974,-61.7747 184.4974,-61.7746"/>
<polygon fill="#000000" stroke="#000000" points="191.4974,-46.3801 187.9973,-36.3802 184.4974,-46.3802 191.4974,-46.3801"/>
<text text-anchor="middle" x="199.3973" y="-49.739" font-family="Times,serif" font-size="14.00" fill="#000000">     2 did</text>
</g>
</g>
</svg>