<?xml version="1.0" encoding="UTF-8" standalone="no"?><svg xmlns="http://www.w3.org/2000/svg" xmlns:xlink="http://www.w3.org/1999/xlink" contentStyleType="text/css" height="328px" preserveAspectRatio="none" style="width:305px;height:328px;background:#FFFFFF;" version="1.1" viewBox="0 0 305 328" width="305px" zoomAndPan="magnify"><defs/><g><line style="stroke:#181818;stroke-width:0.5;stroke-dasharray:5.0,5.0;" x1="23" x2="23" y1="67.2969" y2="321.9609"/><line style="stroke:#181818;stroke-width:0.5;stroke-dasharray:5.0,5.0;" x1="171.5" x2="171.5" y1="67.2969" y2="321.9609"/><text fill="#000000" font-family="sans-serif" font-size="14" lengthAdjust="spacing" textLength="28" x="6" y="63.9951">DLT</text><path d="M5,15 C5,5 23,5 23,5 C23,5 41,5 41,15 L41,41 C41,51 23,51 23,51 C23,51 5,51 5,41 L5,15 " fill="#E2E2F0" style="stroke:#181818;stroke-width:1.5;"/><path d="M5,15 C5,25 23,25 23,25 C23,25 41,25 41,15 " fill="none" style="stroke:#181818;stroke-width:1.5;"/><rect fill="#E2E2F0" height="30.2969" rx="2.5" ry="2.5" style="stroke:#181818;stroke-width:0.5;" width="61" x="141.5" y="36"/><text fill="#000000" font-family="sans-serif" font-size="14" lengthAdjust="spacing" textLength="47" x="148.5" y="55.9951">Holder</text><line style="stroke:#C92750;stroke-width:1.0;" x1="172" x2="214" y1="98.4297" y2="98.4297"/><line style="stroke:#C92750;stroke-width:1.0;" x1="214" x2="214" y1="98.4297" y2="111.4297"/><line style="stroke:#C92750;stroke-width:1.0;" x1="173" x2="214" y1="111.4297" y2="111.4297"/><polygon fill="#C92750" points="183,107.4297,173,111.4297,183,115.4297,179,111.4297" style="stroke:#C92750;stroke-width:1.0;"/><text fill="#000000" font-family="sans-serif" font-size="13" font-weight="bold" lengthAdjust="spacing" textLength="9" x="179" y="93.3638">1</text><text fill="#C92750" font-family="sans-serif" font-size="13" font-weight="bold" lengthAdjust="spacing" textLength="106" x="192" y="93.3638">gen - keypairs</text><line style="stroke:#181818;stroke-width:1.0;" x1="172" x2="214" y1="140.5625" y2="140.5625"/><line style="stroke:#181818;stroke-width:1.0;" x1="214" x2="214" y1="140.5625" y2="153.5625"/><line style="stroke:#181818;stroke-width:1.0;" x1="173" x2="214" y1="153.5625" y2="153.5625"/><polygon fill="#181818" points="183,149.5625,173,153.5625,183,157.5625,179,153.5625" style="stroke:#181818;stroke-width:1.0;"/><text fill="#000000" font-family="sans-serif" font-size="13" font-weight="bold" lengthAdjust="spacing" textLength="9" x="179" y="135.4966">2</text><text fill="#000000" font-family="sans-serif" font-size="13" lengthAdjust="spacing" textLength="60" x="192" y="135.4966">gen - DID</text><line style="stroke:#181818;stroke-width:1.0;" x1="172" x2="214" y1="182.6953" y2="182.6953"/><line style="stroke:#181818;stroke-width:1.0;" x1="214" x2="214" y1="182.6953" y2="195.6953"/><line style="stroke:#181818;stroke-width:1.0;" x1="173" x2="214" y1="195.6953" y2="195.6953"/><polygon fill="#181818" points="183,191.6953,173,195.6953,183,199.6953,179,195.6953" style="stroke:#181818;stroke-width:1.0;"/><text fill="#000000" font-family="sans-serif" font-size="13" font-weight="bold" lengthAdjust="spacing" textLength="8" x="179" y="177.6294">3</text><text fill="#000000" font-family="sans-serif" font-size="13" lengthAdjust="spacing" textLength="104" x="191" y="177.6294">create - DID doc</text><polygon fill="#181818" points="34,245.8281,24,249.8281,34,253.8281,30,249.8281" style="stroke:#181818;stroke-width:1.0;"/><line style="stroke:#181818;stroke-width:1.0;" x1="28" x2="171" y1="249.8281" y2="249.8281"/><text fill="#000000" font-family="sans-serif" font-size="13" font-weight="bold" lengthAdjust="spacing" textLength="9" x="40" y="244.7622">4</text><text fill="#000000" font-family="sans-serif" font-size="13" lengthAdjust="spacing" textLength="112" x="53" y="244.7622">register - DID doc</text><polygon fill="#181818" points="160,299.9609,170,303.9609,160,307.9609,164,303.9609" style="stroke:#181818;stroke-width:1.0;"/><line style="stroke:#181818;stroke-width:1.0;stroke-dasharray:2.0,2.0;" x1="23" x2="166" y1="303.9609" y2="303.9609"/><text fill="#000000" font-family="sans-serif" font-size="13" font-weight="bold" lengthAdjust="spacing" textLength="9" x="30" y="298.895">5</text><text fill="#000000" font-family="sans-serif" font-size="13" lengthAdjust="spacing" textLength="15" x="43" y="298.895">ok</text><!--MD5=[cdf5189b7e8a493ac80fb9a16ecc5f9a]
@startuml
autonumber
hide footbox

    database    DLT    as DLT

    Holder -[#c92750]> Holder: <color #c92750>**gen - keypairs**</color>
    Holder -> Holder: gen - DID
    Holder -> Holder: create - DID doc
|||
    Holder -> DLT: register - DID doc
|||
    return ok
@enduml

PlantUML version 1.2022.8beta2(Unknown compile time)
(GPL source distribution)
Java Runtime: Java(TM) SE Runtime Environment
JVM: Java HotSpot(TM) 64-Bit Server VM
Default Encoding: UTF-8
Language: en
Country: US
--></g></svg>