<?xml version="1.0" encoding="UTF-8" standalone="no"?><svg xmlns="http://www.w3.org/2000/svg" xmlns:xlink="http://www.w3.org/1999/xlink" contentStyleType="text/css" height="394px" preserveAspectRatio="none" style="width:543px;height:394px;background:#FFFFFF;" version="1.1" viewBox="0 0 543 394" width="543px" zoomAndPan="magnify"><defs/><g><line style="stroke:#181818;stroke-width:0.5;stroke-dasharray:5.0,5.0;" x1="174" x2="174" y1="36.2969" y2="387.8906"/><line style="stroke:#181818;stroke-width:0.5;stroke-dasharray:5.0,5.0;" x1="441.5" x2="441.5" y1="36.2969" y2="387.8906"/><rect fill="#E2E2F0" height="30.2969" rx="2.5" ry="2.5" style="stroke:#181818;stroke-width:0.5;" width="61" x="144" y="5"/><text fill="#000000" font-family="sans-serif" font-size="14" lengthAdjust="spacing" textLength="47" x="151" y="24.9951">Holder</text><rect fill="#E2E2F0" height="30.2969" rx="2.5" ry="2.5" style="stroke:#181818;stroke-width:0.5;" width="68" x="407.5" y="5"/><text fill="#000000" font-family="sans-serif" font-size="14" lengthAdjust="spacing" textLength="54" x="414.5" y="24.9951">Verifier</text><line style="stroke:#181818;stroke-width:1.0;" x1="174.5" x2="216.5" y1="67.4297" y2="67.4297"/><line style="stroke:#181818;stroke-width:1.0;" x1="216.5" x2="216.5" y1="67.4297" y2="80.4297"/><line style="stroke:#181818;stroke-width:1.0;" x1="175.5" x2="216.5" y1="80.4297" y2="80.4297"/><polygon fill="#181818" points="185.5,76.4297,175.5,80.4297,185.5,84.4297,181.5,80.4297" style="stroke:#181818;stroke-width:1.0;"/><text fill="#000000" font-family="sans-serif" font-size="13" font-weight="bold" lengthAdjust="spacing" textLength="9" x="181.5" y="62.3638">1</text><text fill="#000000" font-family="sans-serif" font-size="13" lengthAdjust="spacing" textLength="122" x="194.5" y="62.3638">resource discovery</text><polygon fill="#181818" points="429.5,105.5625,439.5,109.5625,429.5,113.5625,433.5,109.5625" style="stroke:#181818;stroke-width:1.0;"/><line style="stroke:#181818;stroke-width:1.0;" x1="174.5" x2="435.5" y1="109.5625" y2="109.5625"/><text fill="#000000" font-family="sans-serif" font-size="13" font-weight="bold" lengthAdjust="spacing" textLength="9" x="181.5" y="104.4966">2</text><text fill="#000000" font-family="sans-serif" font-size="13" lengthAdjust="spacing" textLength="106" x="194.5" y="104.4966">request - access</text><polygon fill="#181818" points="185.5,134.6953,175.5,138.6953,185.5,142.6953,181.5,138.6953" style="stroke:#181818;stroke-width:1.0;"/><line style="stroke:#181818;stroke-width:1.0;" x1="179.5" x2="440.5" y1="138.6953" y2="138.6953"/><text fill="#000000" font-family="sans-serif" font-size="13" font-weight="bold" lengthAdjust="spacing" textLength="8" x="191.5" y="133.6294">3</text><text fill="#000000" font-family="sans-serif" font-size="13" lengthAdjust="spacing" textLength="99" x="203.5" y="133.6294">request a proof</text><line style="stroke:#C92750;stroke-width:1.0;" x1="174.5" x2="216.5" y1="179.4609" y2="179.4609"/><line style="stroke:#C92750;stroke-width:1.0;" x1="216.5" x2="216.5" y1="179.4609" y2="192.4609"/><line style="stroke:#C92750;stroke-width:1.0;" x1="175.5" x2="216.5" y1="192.4609" y2="192.4609"/><polygon fill="#C92750" points="185.5,188.4609,175.5,192.4609,185.5,196.4609,181.5,192.4609" style="stroke:#C92750;stroke-width:1.0;"/><text fill="#000000" font-family="sans-serif" font-size="13" font-weight="bold" lengthAdjust="spacing" textLength="9" x="181.5" y="174.395">4</text><text fill="#C92750" font-family="sans-serif" font-size="13" font-weight="bold" lengthAdjust="spacing" textLength="240" x="194.5" y="174.395">create - verifiable presentation</text><path d="M5,151.6953 L5,206.6953 L170,206.6953 L170,161.6953 L160,151.6953 L5,151.6953 " fill="#FEFFDD" style="stroke:#181818;stroke-width:0.5;"/><path d="M160,151.6953 L160,161.6953 L170,161.6953 L160,151.6953 " fill="#FEFFDD" style="stroke:#181818;stroke-width:0.5;"/><text fill="#000000" font-family="sans-serif" font-size="13" lengthAdjust="spacing" textLength="51" x="11" y="168.7622">optional</text><text fill="#000000" font-family="sans-serif" font-size="13" lengthAdjust="spacing" textLength="140" x="11" y="183.895">zero-knowledge proof</text><text fill="#000000" font-family="sans-serif" font-size="13" lengthAdjust="spacing" textLength="82" x="11" y="199.0278">mechanisms</text><line style="stroke:#C92750;stroke-width:1.0;" x1="174.5" x2="216.5" y1="233.2266" y2="233.2266"/><line style="stroke:#C92750;stroke-width:1.0;" x1="216.5" x2="216.5" y1="233.2266" y2="246.2266"/><line style="stroke:#C92750;stroke-width:1.0;" x1="175.5" x2="216.5" y1="246.2266" y2="246.2266"/><polygon fill="#C92750" points="185.5,242.2266,175.5,246.2266,185.5,250.2266,181.5,246.2266" style="stroke:#C92750;stroke-width:1.0;"/><text fill="#000000" font-family="sans-serif" font-size="13" font-weight="bold" lengthAdjust="spacing" textLength="9" x="181.5" y="228.1606">5</text><text fill="#C92750" font-family="sans-serif" font-size="13" font-weight="bold" lengthAdjust="spacing" textLength="220" x="194.5" y="228.1606">sign - verifiable presentation</text><polygon fill="#181818" points="429.5,271.3594,439.5,275.3594,429.5,279.3594,433.5,275.3594" style="stroke:#181818;stroke-width:1.0;"/><line style="stroke:#181818;stroke-width:1.0;" x1="174.5" x2="435.5" y1="275.3594" y2="275.3594"/><text fill="#000000" font-family="sans-serif" font-size="13" font-weight="bold" lengthAdjust="spacing" textLength="9" x="181.5" y="270.2935">6</text><text fill="#000000" font-family="sans-serif" font-size="13" lengthAdjust="spacing" textLength="188" x="194.5" y="270.2935">send - verifiable presentation</text><line style="stroke:#181818;stroke-width:1.0;" x1="441.5" x2="483.5" y1="316.125" y2="316.125"/><line style="stroke:#181818;stroke-width:1.0;" x1="483.5" x2="483.5" y1="316.125" y2="329.125"/><line style="stroke:#181818;stroke-width:1.0;" x1="442.5" x2="483.5" y1="329.125" y2="329.125"/><polygon fill="#181818" points="452.5,325.125,442.5,329.125,452.5,333.125,448.5,329.125" style="stroke:#181818;stroke-width:1.0;"/><text fill="#000000" font-family="sans-serif" font-size="13" font-weight="bold" lengthAdjust="spacing" textLength="9" x="448.5" y="311.0591">7</text><text fill="#000000" font-family="sans-serif" font-size="13" lengthAdjust="spacing" textLength="75" x="461.5" y="311.0591">verify claim</text><path d="M216,288.3594 L216,343.3594 L436,343.3594 L436,298.3594 L426,288.3594 L216,288.3594 " fill="#FEFFDD" style="stroke:#181818;stroke-width:0.5;"/><path d="M426,288.3594 L426,298.3594 L436,298.3594 L426,288.3594 " fill="#FEFFDD" style="stroke:#181818;stroke-width:0.5;"/><text fill="#000000" font-family="sans-serif" font-size="13" lengthAdjust="spacing" textLength="199" x="222" y="305.4263">verify - vp proof and metadata</text><text fill="#000000" font-family="sans-serif" font-size="13" lengthAdjust="spacing" textLength="198" x="222" y="320.5591">verify - vc proof and metadata</text><text fill="#000000" font-family="sans-serif" font-size="13" font-style="italic" lengthAdjust="spacing" textLength="111" x="222" y="335.6919">no issuer needed</text><polygon fill="#181818" points="185.5,365.8906,175.5,369.8906,185.5,373.8906,181.5,369.8906" style="stroke:#181818;stroke-width:1.0;"/><line style="stroke:#181818;stroke-width:1.0;" x1="179.5" x2="440.5" y1="369.8906" y2="369.8906"/><text fill="#000000" font-family="sans-serif" font-size="13" font-weight="bold" lengthAdjust="spacing" textLength="9" x="191.5" y="364.8247">8</text><text fill="#000000" font-family="sans-serif" font-size="13" lengthAdjust="spacing" textLength="84" x="204.5" y="364.8247">authorization</text><!--MD5=[77b1e46c681e9488da52a9785b1da416]
@startuml
autonumber
hide footbox

Holder -> Holder: resource discovery
Holder -> Verifier: request - access
Verifier -> Holder: request a proof
Holder -[#c92750]> Holder: <color #c92750>**create - verifiable presentation**</color>

note left
    optional
    zero-knowledge proof 
    mechanisms
end note   
Holder -[#c92750]> Holder: <color #c92750>**sign - verifiable presentation**</color>
Holder -> Verifier: send - verifiable presentation
Verifier -> Verifier: verify claim
note left
    verify - vp proof and metadata
    verify - vc proof and metadata
    //no issuer needed//
end note
Verifier -> Holder: authorization
@enduml

PlantUML version 1.2022.8beta2(Unknown compile time)
(GPL source distribution)
Java Runtime: Java(TM) SE Runtime Environment
JVM: Java HotSpot(TM) 64-Bit Server VM
Default Encoding: UTF-8
Language: en
Country: US
--></g></svg>